<svg width="24" height="24" viewBox="0 0 24 24" fill="none" xmlns="http://www.w3.org/2000/svg">
<path d="M3.42857 22.2857V12L12 3.42859L20.5714 12V22.2857C20.5714 22.5109 20.5271 22.7338 20.4409 22.9418C20.3548 23.1497 20.2285 23.3387 20.0693 23.4979C19.9101 23.6571 19.7212 23.7834 19.5132 23.8695C19.3052 23.9557 19.0823 24 18.8571 24H5.14286C4.6882 24 4.25217 23.8194 3.93068 23.4979C3.60919 23.1764 3.42857 22.7404 3.42857 22.2857Z" fill="white"/>
<path fill-rule="evenodd" clip-rule="evenodd" d="M10.788 2.21658C11.1095 1.8952 11.5454 1.71466 12 1.71466C12.4546 1.71466 12.8905 1.8952 13.212 2.21658L23.4977 12.5023C23.81 12.8256 23.9828 13.2586 23.9789 13.7081C23.975 14.1576 23.7947 14.5876 23.4768 14.9054C23.159 15.2233 22.729 15.4035 22.2796 15.4074C21.8301 15.4114 21.397 15.2386 21.0737 14.9263L12 5.85258L2.92629 14.9263C2.60297 15.2386 2.16994 15.4114 1.72046 15.4074C1.27098 15.4035 0.841018 15.2233 0.523175 14.9054C0.205333 14.5876 0.0250431 14.1576 0.0211372 13.7081C0.0172313 13.2586 0.190022 12.8256 0.502293 12.5023L10.788 2.21658Z" fill="black"/>
</svg>
