<svg width="30" height="30" viewBox="0 0 30 30" fill="none" xmlns="http://www.w3.org/2000/svg">
<path d="M27.0738 9.95874C27.0824 9.82447 27.062 9.68992 27.0139 9.56423C26.9659 9.43855 26.8914 9.32467 26.7955 9.23034C26.6996 9.136 26.5844 9.06342 26.458 9.01753C26.3315 8.97164 26.1966 8.9535 26.0625 8.96436C24.1775 9.11811 20.775 9.28936 14.9869 9.28936C9.22751 9.28936 5.83063 9.11999 3.94001 8.96686C3.80596 8.95601 3.67114 8.97413 3.54471 9.01999C3.41829 9.06585 3.3032 9.13837 3.20728 9.23263C3.11135 9.3269 3.03683 9.4407 2.98878 9.56631C2.94072 9.69191 2.92025 9.82639 2.92876 9.96061C3.48376 18.6106 4.01626 23.1294 4.33688 25.3025C4.54438 26.71 5.49313 27.9381 6.97813 28.295C8.50626 28.6625 11.0719 29.0619 15.0013 29.0619C18.93 29.0619 21.4963 28.6619 23.0244 28.295C24.5088 27.9387 25.4581 26.71 25.6656 25.3025C25.9863 23.1294 26.5188 18.61 27.0738 9.95874Z" fill="white"/>
<path d="M14.6063 0.625C13.7057 0.624932 12.8218 0.868104 12.048 1.32883C11.2741 1.78955 10.6391 2.45073 10.21 3.2425C8.07813 3.2875 6.46 3.35625 5.32625 3.41875C3.88125 3.49812 2.39375 4.195 1.76375 5.67187C1.61125 6.02812 1.46688 6.42938 1.34938 6.87125C0.924375 8.46375 2.16313 9.76 3.635 9.885C5.54563 10.0462 9.01875 10.2275 14.9856 10.2275C20.9537 10.2275 24.4269 10.0462 26.3369 9.88437C27.8206 9.75937 29.0188 8.47125 28.6813 6.89375C28.6288 6.64849 28.5675 6.40521 28.4975 6.16437C27.9825 4.395 26.2994 3.49125 24.63 3.4075C23.0176 3.32852 21.4041 3.27352 19.79 3.2425C19.3609 2.45082 18.726 1.78971 17.9523 1.32899C17.1786 0.86827 16.2949 0.625045 15.3944 0.625H14.6063Z" fill="black"/>
<path fill-rule="evenodd" clip-rule="evenodd" d="M11.125 14.3813C11.2884 14.3648 11.4534 14.3808 11.6106 14.4282C11.7678 14.4755 11.9142 14.5534 12.0413 14.6574C12.1684 14.7613 12.2738 14.8893 12.3514 15.034C12.429 15.1787 12.4774 15.3372 12.4938 15.5006L13.1188 21.7506C13.1487 22.0789 13.0478 22.4058 12.8379 22.66C12.6281 22.9142 12.3263 23.0753 11.9983 23.1081C11.6703 23.1409 11.3426 23.0428 11.0866 22.8351C10.8305 22.6275 10.6669 22.3271 10.6313 21.9994L10.0063 15.7494C9.97327 15.4196 10.0726 15.0903 10.2824 14.8337C10.4922 14.5772 10.7953 14.4144 11.125 14.3813Z" fill="black"/>
<path fill-rule="evenodd" clip-rule="evenodd" d="M18.875 14.3813C18.7116 14.3648 18.5466 14.3808 18.3894 14.4282C18.2322 14.4755 18.0858 14.5534 17.9587 14.6574C17.8316 14.7613 17.7262 14.8893 17.6486 15.034C17.571 15.1787 17.5226 15.3372 17.5062 15.5006L16.8812 21.7506C16.8513 22.0789 16.9522 22.4058 17.1621 22.66C17.3719 22.9142 17.6737 23.0753 18.0017 23.1081C18.3297 23.1409 18.6574 23.0428 18.9134 22.8351C19.1695 22.6275 19.3331 22.3271 19.3687 21.9994L19.9937 15.7494C20.0267 15.4196 19.9274 15.0903 19.7176 14.8337C19.5078 14.5772 19.2047 14.4144 18.875 14.3813Z" fill="black"/>
</svg>
